<svg xmlns="http://www.w3.org/2000/svg" width="1450" height="1233" viewBox="0 0 1450 1233"><rect width="1450" height="1230" transform="translate(0)" fill="#0a3449"/><path d="M1450,9431s-84.095,19.585-131.733,38.6c-31.66,12.633-40.058,84-74.82,97.735-54.278,21.45,2.027,118.312-27.575,145.329s-61.593,97.261-52.088,131.053-20.138,39.1-16.593,47.415c22.213,52.085-79.193,32.693-78.926,54.312s-103.936,42.491-196.3,65.847-89.955,40.363-96.227,43.686-34.991,47-121.623,45.919-120.287-16.637-152,2.144-16.506,47.3-79.022,31.691-87.861-53.662-116.584-44.771,21.965-53.13-10.138-58.446-22.388-46.138-45.831-50.227V10530H1450Z" transform="translate(0 -9296.999)" fill="#072231"/><g transform="translate(0 -9296.999)"><path d="M824.809,9590.513c-1.754,2.27-27.128,11.651-27.128,11.651l3.149-5.454-8.687,8.04s4.407-9.536-15.359-20.4-25.158-19.529-25.158-19.529c-36.23,14.572-75.185-31.563-75.185-31.563a109.488,109.488,0,0,1-31.582,1.248c-17.049-1.892-20.14-26.139-25.323-17.778s-42.048,20.225-42.048,20.225,30.51-5.158,6.489,3.907-54.432-6.144-80.932-31.515-64.679-62.486-64.679-62.486-3.5,56.33-18.477,98.69,5.125,43.537,5.125,43.537c7.647-2.116,14.075-10.8,14.075-10.8s-2.457,12.363-16.4,50.678-12.955,58.281-12.955,58.281c3.247-10.14,21.691-32.47,21.691-32.47-14.531,23.021-9.931,45.142-9.931,45.142l2.92-11.991s5,5.1-6.2,24.28-11.459,29.264-11.459,29.264a23.342,23.342,0,0,1,4.321-7.39c-4.321,7.39-.49,19.833-.49,19.833s25.5-32.452,33.576-28.4,2.533,8.515,2.533,8.515l5.318-2-2.825,3.717c12.918.022,19.157-17.461,24.843-34.334,3.845-11.411,6.009-9.413,7.006-6.925a.683.683,0,0,0,1.279-.019c.9-2.641,2.787-1.325,14.7,7.392,14.748,10.792,25.1-1.015,25.1-1.015-4.828,7.509-16.224,8.95-16.224,8.95,14.844.7,26.468-6.853,29.747-19.142s28.584-22.728,31.529-27.759,10.309-6.759,10.309-6.759,1.845,10.605,3.413,10.666,8-9.539,13.536-7.623,8.84,12.9,8.84,12.9,9.161-8.687,10.346-6.258,1.537,13.972,1.537,13.972l1.25-4.607.837,6.537c9.411-18.353,48.4-14.784,54.034-32.931s22.107-37.621,30.412-39.069a32.886,32.886,0,0,0,14.561-7.06c-2.683,6.381-9.923,9.472-9.923,9.472,13.044-2.56,15.041-11.1,16.907-18.219s16.95-22.3,19.186-15.36,4.149,4.134,9.1,9.116,3.2,12.108,4.459,17.635,1.044,18.758,1.044,18.758l1.8-16.067c2.522,11.053-2.707,30.783-2.707,30.783,11.782-6.872,21.53-24.091,21.53-24.091l1.622,18.48,3.684-1.651-1.366,4.072c14.62-6.5,18.848-16.5,18.848-16.5l-.322,4.719c4.285-5.792,7.89-6.565,15.718-10.046s16.34-19.265,16.34-19.265S826.563,9588.244,824.809,9590.513Zm-256.023,41.494,1.508-8.033c-1.508,8.033-14.409,19.884-14.409,19.884l1.9-7.446a27.208,27.208,0,0,1-5.163,9.355c-3.836,4.508-12.093,9.053-10.06,6.146s.527-15.412.527-15.412-2.265,7.854-2.381,3.095,2.458-13.579-1.976-10.985-15.6,9.93-15.6,9.93l2.363-5.306-7.613,9.573c1.1-14.476,11.227-26.139,15.611-30.6s.984-13.162,11.163-18.193,17.019-21.854,17.019-21.854c.362,9.31-1.821,13.858-1.821,13.858,2.236-1.508,3.292-9.416,3.292-9.416s1.173,2.867-1.352,11.14,3.81,21.11,8.136,29.347A13.972,13.972,0,0,1,568.786,9632.007Z" fill="#051c26"/><path d="M727.25,9431.019q.417,10.351,1.252,20.614c.134,1.713.29,3.423.455,5.132q.221,2.565.5,5.124l1.131,10.234a191.744,191.744,0,0,0,3.022,20.4c.749,3.358,1.618,6.692,2.641,9.978s2.226,6.512,3.472,9.711,2.69,6.317,4.133,9.42,2.98,6.157,4.632,9.144,3.393,5.918,5.288,8.744,3.835,5.618,5.959,8.269c2.083,2.683,4.315,5.244,6.637,7.723q3.523,3.678,7.392,7.021c2.6,2.2,5.319,4.261,8.131,6.214,1.434.929,2.843,1.913,4.324,2.783,1.451.925,2.978,1.713,4.468,2.593l-.123.269c-1.606-.641-3.233-1.259-4.793-2.021-1.591-.7-3.13-1.514-4.667-2.337a80.989,80.989,0,0,1-8.792-5.684,87.132,87.132,0,0,1-7.976-6.825,94.3,94.3,0,0,1-7.068-7.775,102.034,102.034,0,0,1-11.247-17.666,119.577,119.577,0,0,1-7.821-19.325c-2.091-6.617-3.836-13.309-5.522-20.015-1.671-6.706-3.377-13.438-4.525-20.283q-.849-5.131-1.3-10.319-.225-2.59-.4-5.185c-.107-1.731-.176-3.463-.239-5.2s-.083-3.465-.091-5.2.018-3.467.072-5.2c.109-3.463.31-6.924.758-10.367Z" fill="#09181e"/><path d="M373.037,9416.974s557.869,193.453,598.049,231.061S918,9632.269,764.542,9574.6s-361.7-132.477-431.6-156.446S321.929,9399.1,373.037,9416.974Z" fill="#09181e"/><path d="M601.2,9734.134s118-398.768,120.684-414.881,17.09,11.865,16.87,14.269-14.992,38.01-14.992,38.01l12.956-15.779-11.767,35.881,9.787-14.251s11.207,11.909.608,33.064-86.1,311.728-86.1,311.728S632.84,9749.148,601.2,9734.134Z" fill="#09181e"/><path d="M690.178,9431.536a26.315,26.315,0,0,0,3.892,2.382,43.4,43.4,0,0,0,4.167,1.856c.709.272,1.428.521,2.138.781s1.449.455,2.17.685c.715.247,1.459.416,2.187.619s1.46.4,2.205.545,1.482.314,2.224.458l2.251.323c.745.125,1.49.247,2.239.354s1.487.271,2.228.431c1.483.313,2.977.59,4.466.994a36.094,36.094,0,0,1,4.515,1.226l-.015.295a33,33,0,0,1-4.7.548,44.432,44.432,0,0,1-4.7-.141,40.949,40.949,0,0,1-9.134-2.21c-.752-.219-1.49-.487-2.226-.759s-1.478-.514-2.2-.833-1.446-.605-2.155-.938-1.412-.679-2.108-1.034a44.789,44.789,0,0,1-4.02-2.418,22.543,22.543,0,0,1-3.632-2.952Z" fill="#072231"/><path d="M688.163,9438.231a90.848,90.848,0,0,0,9.824,1.745c1.644.209,3.291.376,4.938.473,1.644.112,3.287.175,4.923.16a64.518,64.518,0,0,0,9.585-1.106,27.242,27.242,0,0,0,9.067-3.14l.206.212a12.1,12.1,0,0,1-3.759,3.652,17.72,17.72,0,0,1-4.841,2.151,21.022,21.022,0,0,1-5.173.766c-1.735.025-3.453-.065-5.157-.174s-3.393-.319-5.069-.568c-1.675-.265-3.334-.6-4.979-.972a76.429,76.429,0,0,1-9.656-2.919Z" fill="#072231"/><path d="M687.295,9441.31c1.569.36,3.081.783,4.575,1.227s2.972.894,4.44,1.353,2.911.967,4.347,1.509a45.407,45.407,0,0,0,4.364,1.465c1.478.407,2.973.759,4.482,1.02a36.318,36.318,0,0,0,4.556.587,27.734,27.734,0,0,0,4.6-.016,24.855,24.855,0,0,0,4.553-.855l.1.276a24.858,24.858,0,0,1-9.276,2.071,41.912,41.912,0,0,1-9.548-.78c-1.57-.293-3.144-.594-4.7-.974a27.627,27.627,0,0,1-4.531-1.539,34.768,34.768,0,0,1-4.24-2.219,23.506,23.506,0,0,1-3.872-2.864Z" fill="#072231"/><path d="M659.834,9683.414a30.72,30.72,0,0,1-5.309-.1,50.725,50.725,0,0,1-5.248-.788c-.866-.177-1.726-.384-2.587-.572-.858-.2-1.705-.46-2.556-.687-.856-.205-1.69-.5-2.532-.762s-1.681-.523-2.5-.845-1.651-.619-2.468-.944l-2.411-1.09c-.808-.345-1.615-.691-2.417-1.055s-1.628-.664-2.454-.973c-1.651-.622-3.29-1.284-5-1.82a41.944,41.944,0,0,0-5.194-1.624l-.17.3a38.517,38.517,0,0,0,4.266,3.479,52.141,52.141,0,0,0,4.7,2.806,47.682,47.682,0,0,0,10.342,3.55c.874.256,1.766.454,2.658.648s1.772.422,2.676.559,1.8.311,2.7.428c.908.1,1.81.219,2.716.306a51.919,51.919,0,0,0,5.455.146,26.256,26.256,0,0,0,5.41-.622Z" fill="#072231"/><path d="M657.62,9691.241a105.217,105.217,0,0,1-10.728-4.437c-1.744-.823-3.464-1.69-5.139-2.627-1.683-.919-3.333-1.887-4.928-2.925a74.937,74.937,0,0,1-8.709-7.085,31.664,31.664,0,0,1-6.927-8.755l-.335.08a14.1,14.1,0,0,0,1.4,5.935,20.624,20.624,0,0,0,3.4,5.14,24.531,24.531,0,0,0,4.595,3.989c1.686,1.111,3.427,2.1,5.166,3.058s3.528,1.811,5.329,2.614,3.643,1.5,5.49,2.164a88.657,88.657,0,0,0,11.3,3.183Z" fill="#072231"/><path d="M656.543,9694.8c-1.763-.63-3.512-1.161-5.254-1.661s-3.474-.983-5.2-1.452-3.459-.875-5.207-1.242a53.146,53.146,0,0,1-5.2-1.295c-1.706-.525-3.391-1.116-5.034-1.806a42.343,42.343,0,0,1-4.836-2.275,32.309,32.309,0,0,1-4.5-2.9,29,29,0,0,1-3.93-3.687l-.276.2a28.963,28.963,0,0,0,7.8,7.839,48.846,48.846,0,0,0,9.853,5.211c1.724.7,3.455,1.385,5.218,1.985a32,32,0,0,0,5.407,1.326,40.537,40.537,0,0,0,5.547.479,27.39,27.39,0,0,0,5.591-.386Z" fill="#072231"/><path d="M700.211,9532.614a70.73,70.73,0,0,1-9.862,5.395,75.139,75.139,0,0,1-10.641,3.84c-1.819.537-3.661,1.01-5.519,1.468-.93.216-1.88.34-2.826.469l-1.425.151c-.477.026-.958.023-1.436.035-.96,0-1.917-.018-2.871-.059-.958-.1-1.912-.213-2.859-.371-.473-.079-.946-.135-1.415-.235l-1.4-.374a28.782,28.782,0,0,1-2.74-.923l.045-.4c3.8-.8,7.368-1.038,10.947-1.645,3.549-.562,7.188-.562,10.775-1.248a96.018,96.018,0,0,0,10.658-2.588,83.894,83.894,0,0,0,10.365-3.863Z" fill="#072231"/><path d="M663.735,9520.258c1.777,4.369,3.649,8.7,5.67,12.943.981,2.136,2.023,4.242,3.071,6.34s2.116,4.181,3.244,6.228,2.334,4.05,3.589,6.008c.627.979,1.238,1.964,1.818,2.968q.914,1.472,1.772,2.978c2.313,4.017,4.659,7.935,7.234,12.006l-.278.29c-1.025-.641-2-1.367-2.981-2.1a35.3,35.3,0,0,1-2.679-2.463,29.4,29.4,0,0,1-2.442-2.69c-.768-.933-1.54-1.873-2.225-2.859-2.9-3.882-4.7-8.384-6.684-12.705s-3.714-8.766-5.3-13.237c-1.536-4.49-3.018-8.988-4.193-13.581Z" fill="#072231"/><path d="M659.126,9535.2a83.091,83.091,0,0,0,11.445-1.816l2.808-.664,2.777-.764c1.838-.545,3.677-1.073,5.466-1.743,3.618-1.252,6.956-3.1,10.476-4.461,3.574-1.319,6.965-2.955,10.819-4.2l.233.327c-.639.784-1.345,1.493-2.054,2.211l-1.1,1.043c-.373.339-.781.621-1.172.935-.783.628-1.611,1.188-2.424,1.784-.839.546-1.712,1.031-2.582,1.53l-1.322.712c-.45.216-.916.4-1.373.6-.925.377-1.859.735-2.806,1.05-1.932.524-3.83,1.117-5.77,1.549a76.758,76.758,0,0,1-11.662,2.079,71.2,71.2,0,0,1-11.772.234Z" fill="#072231"/><path d="M664.749,9516.758a62.4,62.4,0,0,0,6.49,9.149c1.179,1.443,2.435,2.821,3.717,4.165l1.936,2,2.017,1.913c1.388,1.227,2.793,2.432,4.283,3.525.735.559,1.458,1.127,2.157,1.725s1.427,1.158,2.121,1.766c1.359,1.256,2.793,2.42,4.157,3.717a52.652,52.652,0,0,1,4.123,3.992l-.2.348a33.838,33.838,0,0,1-10.527-4.873c-3.288-2.087-5.811-5.12-8.4-7.947a70.051,70.051,0,0,1-7-9.145,55.372,55.372,0,0,1-5.239-10.177Z" fill="#072231"/><path d="M1123.682,9645.646q-22.095-2.024-43.495-3.328c-15.314-.144-68.071-.659-93.624-1.2-30.084-.634-33.435,1.229-54.914,4.212s-39.073-2.265-35.006.733,19.623,5.432,19.623,5.432c-5.386,2.2-25.259-2.239-45.619-5.431a1055.262,1055.262,0,0,0-140.9,24.153,9.155,9.155,0,0,0-6.952,9.61h0l26.32-4.491-.918,1.667s-25.159,6.785-34.877,7.712-26.641,9.073-41.527,9.528-61.084,21.975-69.17,24.264-28.578,14.349-28.578,14.349l-7.976-6.223a801.011,801.011,0,0,0-91.746,49.379l1.039,5.67,15.126-7.9s-18.217,15.19-31.33,19.442-21.042,18.068-24.156,19-15.36,15.559-25.849,17.627c-8.164,1.61-49.28,44.563-67.594,60.95a133.7,133.7,0,0,0-16.822,53.733h0s355.455,28.579,454.233,41.585,183.512-38.965,231.913-130.867,118.021-177.319,118.021-177.319Z" fill="#09181e"/><path d="M630.568,9674.275a305.213,305.213,0,0,1-52.868,3.354,218.488,218.488,0,0,1-26.312-2.346l-3.266-.478c-1.088-.162-2.162-.405-3.245-.6l-6.483-1.225c-4.276-1.025-8.581-1.934-12.785-3.224-4.253-1.115-8.4-2.58-12.569-3.964l-6.157-2.35c-.511-.2-1.029-.383-1.536-.6l-1.513-.649-3.029-1.3-3.025-1.309-2.966-1.437-2.967-1.437c-.492-.243-.994-.469-1.479-.728l-1.449-.784c-1.929-1.053-3.876-2.077-5.791-3.154l-5.658-3.392a207.041,207.041,0,0,1-40.714-33.5,226.573,226.573,0,0,1-17.015-20.318,234.582,234.582,0,0,1-14.551-22.182c-1.152-1.889-2.174-3.854-3.251-5.784s-2.109-3.889-3.11-5.861l-1.51-2.954-1.444-2.985c-.963-1.99-1.931-3.979-2.83-6-3.7-8.032-7.065-16.209-10.17-24.48q-4.7-12.391-8.717-25.023c-1.34-4.209-2.63-8.437-3.835-12.687l-.916-3.185-.881-3.2c-.6-2.128-1.15-4.267-1.7-6.406-2.227-8.556-4.192-17.181-5.972-25.847-.874-4.337-1.712-8.682-2.474-13.043q-.568-3.27-1.071-6.553c-.335-2.187-.676-4.378-.947-6.573l-.295.026c.276,4.433.767,8.844,1.32,13.249s1.173,8.8,1.921,13.179,1.522,8.751,2.423,13.1c.433,2.18.912,4.349,1.372,6.521.491,2.166.969,4.336,1.5,6.493s1.042,4.319,1.6,6.469q.814,3.233,1.7,6.444c1.178,4.285,2.442,8.548,3.756,12.795q3.948,12.735,8.922,25.131,5.016,12.36,10.976,24.3c.97,2,2.006,3.964,3.038,5.931l1.546,2.95,1.611,2.915,1.6,2.922c.532.975,1.1,1.927,1.651,2.893,1.112,1.921,2.2,3.856,3.359,5.748,4.538,7.629,9.365,15.09,14.567,22.287a257.343,257.343,0,0,0,16.633,20.82,192.689,192.689,0,0,0,40.425,34.759l5.706,3.509c1.933,1.116,3.9,2.179,5.846,3.271l1.465.814c.489.268,1,.5,1.494.757l3,1.494,3,1.494,3.061,1.365,3.065,1.357,1.533.678c.512.222,1.04.406,1.56.611l6.26,2.4c2.109.738,4.239,1.414,6.358,2.124,2.109.741,4.269,1.318,6.423,1.909,4.287,1.271,8.669,2.154,13.021,3.153,2.193.414,4.4.789,6.591,1.184,1.1.188,2.2.41,3.3.551l3.32.418a221.151,221.151,0,0,0,26.663,1.838,263.756,263.756,0,0,0,52.964-5.373Z" fill="#09181e"/><path d="M594.511,9807.136s75.4-26.118,94.165-29.247,18.888-24.322,24.325-27.461-16.853,2.094-16.853,2.094l18.074-6.828-6.591,1.187s10.953-14.42,30.4-11.73,25.214-7.386,36.412-7.27,58.079-12.253,59.386-10.013,59.451,9.078,63.356,9.436.7,12.182.7,12.182L929.9,9740.6l-40.178,2.078-1.455,12.59,50.826,4.047-9.754,3.954s-3.94,13.259-10.5,18.724a124.875,124.875,0,0,1-12.023,8.9l-59.21-5.117,6.414,6.04,2.22,15.455,2.375,17.076-12.154.4,8.41,10.71,46.756,2.178s-22.255,31.325-32.772,33.694-14.636-5.581-22.912-4.521-11.89,14.059-32.073,12.817-37.773-1.035-37.773-1.035l40.6-3.335-9.234-8.335s-73.607-.069-100.9,6.821-3.2-1.506,1.314-4.426-8.268-11.058-8.4-20.157-47.158-1.316-54.743-2.892,5.131-21.645,5.131-21.645l-26.855,12.083,28.88-17.653.989-4.188-13.819-1.267s-35.7,12.524-41.1,12.03,6.848-15.165,6.848-15.165l26.167-7.865Z" fill="#072231"/><path d="M929.335,9763.266l3.947-1.6-39.937-3.18-5.083-3.222,1.455-12.59,13.435-.694c.131-.544.314-1.353.491-2.3l-5.757-.2s1.544-5.706,1.178-9.311c-13.022-1.482-58.993-7.1-60.153-9.086-1.307-2.24-48.188,10.129-59.386,10.013s-16.968,9.958-36.412,7.27a33.783,33.783,0,0,0-29.849,11.07c.539.038,6.041-.526,6.041-.526s-8.546,4.125-8.913,4.855c5.4-1.057,10.651-1.827,7.693-.12-5.437,3.138-5.56,24.332-24.326,27.461-12.947,2.158-52.846,15.259-76.348,23.176l13.565-1.688,5.084,3.221-26.167,7.865s-5.729,6.863-7.622,11.359c11.08-2.427,36.786-11.445,36.786-11.445l13.819,1.266,5.084,3.221-.989,4.19-8.957,5.474c-.674,1.2,6.932.1,6.932.1s-8,12.632-7.515,18.638c12.229.169,50.466-5.443,51.993,2.229,3.156.676,5.107,1.826,5.133,3.669.129,8.916,12.384,16.9,8.641,19.969,30.961-5.485,94.257-5.428,94.257-5.428l5.084,3.221,9.234,8.334-11.476.943q1.767.1,3.569.206c20.183,1.242,23.8-11.756,32.073-12.816s12.395,6.892,22.912,4.521c8.553-1.927,24.869-23,30.664-30.808l-39.564-1.844-5.083-3.221-8.411-10.71,12.154-.4-2.375-17.076-2.22-15.455-6.415-6.04,59.211,5.117a124.875,124.875,0,0,0,12.023-8.9C925.394,9776.524,929.335,9763.266,929.335,9763.266Z" fill="#051c26"/><path d="M324.649,9944.458c5.627-6.733,11.567-13.191,17.605-19.554s12.208-12.6,18.508-18.709q18.9-18.321,38.936-35.42a836.094,836.094,0,0,1,84.232-63.1q22.061-14.372,44.995-27.32l5.735-3.225,5.774-3.155c1.93-1.042,3.844-2.11,5.786-3.132l5.821-3.064c3.866-2.071,7.788-4.036,11.683-6.05s7.852-3.909,11.775-5.868l11.875-5.662,5.979-2.742c2-.906,3.971-1.86,5.982-2.735,8-3.594,16.044-7.092,24.164-10.407,4.061-1.655,8.115-3.33,12.214-4.89l6.125-2.4c2.044-.795,4.107-1.54,6.16-2.312l6.165-2.3,6.2-2.2,6.206-2.187,6.243-2.082a667.774,667.774,0,0,1,102.087-25.5l6.5-1.084,6.516-.953,6.517-.949c2.175-.3,4.356-.551,6.534-.829,4.357-.544,8.715-1.1,13.073-1.559l13.077-1.432q26.161-2.805,52.393-4.933c17.488-1.386,35-2.564,52.531-3.312s35.085-1.148,52.64-.912q13.166.17,26.318,1.018c4.382.271,8.758.659,13.13,1.081,4.368.463,8.732.978,13.077,1.64a130.026,130.026,0,0,1,25.615,6.188,54.46,54.46,0,0,1,6.04,2.692,30.526,30.526,0,0,1,5.532,3.642,17.081,17.081,0,0,1,2.343,2.362,11.8,11.8,0,0,1,1.756,2.833,7.978,7.978,0,0,1,.114,6.512l-.208-.112a6.736,6.736,0,0,0,.534-3.14,8.543,8.543,0,0,0-.791-3.1,11.421,11.421,0,0,0-1.758-2.7,17.1,17.1,0,0,0-2.324-2.252,30.016,30.016,0,0,0-5.493-3.474,53.908,53.908,0,0,0-6.01-2.548,98.925,98.925,0,0,0-12.609-3.479c-4.273-.905-8.583-1.636-12.912-2.239s-8.681-1.055-13.036-1.459c-4.359-.362-8.721-.692-13.092-.9-8.739-.461-17.491-.65-26.245-.714-17.509-.092-35.022.442-52.514,1.34-8.747.438-17.49.99-26.23,1.56-8.738.608-17.474,1.254-26.2,1.99-17.463,1.421-34.907,3.09-52.341,4.87l-13.071,1.371c-4.362.441-8.7.974-13.047,1.5-2.171.267-4.346.5-6.515.8l-6.5.917-6.5.919-6.479,1.051a706.44,706.44,0,0,0-102.045,24.536l-6.254,2.014-6.218,2.117-6.216,2.128-6.179,2.229c-2.058.75-4.126,1.472-6.176,2.244l-6.141,2.336c-4.1,1.541-8.156,3.2-12.219,4.836-8.124,3.282-16.173,6.745-24.18,10.3-4.009,1.767-7.963,3.655-11.94,5.491l-11.834,5.718c-3.909,1.978-7.844,3.9-11.732,5.922l-5.829,3.033q-2.922,1.5-5.8,3.085l-5.773,3.139c-1.925,1.044-3.824,2.137-5.737,3.2l-5.723,3.226-5.685,3.295c-3.8,2.172-7.539,4.46-11.3,6.693-3.751,2.26-7.472,4.568-11.2,6.868-7.411,4.665-14.788,9.387-22.063,14.26a937.082,937.082,0,0,0-84.143,62.839c-13.391,11.288-26.544,22.867-39.249,34.931s-25.149,24.42-36.79,37.521Z" fill="#051c26"/><path d="M519.156,9960.724a633.957,633.957,0,0,1,104.379-37.389c17.928-4.611,36.075-8.316,54.313-11.379,2.274-.418,4.566-.729,6.847-1.1l6.847-1.1,13.727-1.981c4.581-.619,9.175-1.144,13.763-1.72l13.773-1.6q13.776-1.556,27.571-2.993,13.8-1.367,27.626-2.5c18.438-1.43,36.907-2.638,55.417-3.042,18.5-.356,37.073-.179,55.514,2.107a126.172,126.172,0,0,1,13.73,2.434,55.078,55.078,0,0,1,13.195,4.7,17.715,17.715,0,0,1,5.551,4.44,9.233,9.233,0,0,1,1.646,3.238,8.319,8.319,0,0,1,.138,3.618,14.263,14.263,0,0,1-3.14,6.287,27.21,27.21,0,0,1-5.075,4.772l-.139-.191a27.636,27.636,0,0,0,4.793-4.908,13.634,13.634,0,0,0,2.788-6.082,7.451,7.451,0,0,0-.238-3.246,8.244,8.244,0,0,0-1.581-2.844,16.9,16.9,0,0,0-5.319-4,53.821,53.821,0,0,0-12.969-4.229c-2.241-.478-4.5-.871-6.772-1.212s-4.548-.646-6.833-.9c-9.141-1.018-18.356-1.417-27.569-1.585s-18.44-.09-27.662.135c-18.446.451-36.892,1.379-55.315,2.67q-13.818.958-27.629,2.075-13.814,1.087-27.615,2.358c-18.405,1.643-36.754,3.874-54.919,7.259-18.162,3.368-36.136,7.655-53.944,12.489a871.2,871.2,0,0,0-104.8,35.639Z" fill="#051c26"/><path d="M595.884,9967.5q19.5-5.5,39.418-9.381c13.259-2.605,26.618-4.754,40.049-6.27,6.721-.742,13.447-1.311,20.168-1.931,3.361-.314,6.724-.594,10.088-.874l10.083-.911,40.326-3.73c13.448-1.2,26.922-2.193,40.419-2.807s27.015-.987,40.541-.735A306.168,306.168,0,0,1,877.45,9944l2.512.39,2.5.473c.833.163,1.667.311,2.5.486l2.484.563a94.055,94.055,0,0,1,9.807,2.77,45.743,45.743,0,0,1,9.264,4.279,26.239,26.239,0,0,1,4.08,3.089,15.823,15.823,0,0,1,3.033,4.105l-.21.106a15.937,15.937,0,0,0-3.177-3.827,25.584,25.584,0,0,0-4.114-2.817c-.736-.394-1.454-.814-2.227-1.137s-1.5-.722-2.3-1l-2.342-.891-2.385-.777a122.89,122.89,0,0,0-19.691-3.988c-6.658-.875-13.36-1.456-20.077-1.8-6.717-.327-13.441-.606-20.174-.647-6.73-.132-13.466-.073-20.2-.019s-13.474.226-20.209.457c-13.472.473-26.943,1.123-40.413,1.875q-20.2,1.176-40.347,3.2c-6.708.724-13.413,1.479-20.106,2.332s-13.394,1.648-20.065,2.574q-10.017,1.345-20.01,2.844c-3.33.511-6.658,1.03-9.981,1.584s-6.649,1.1-9.965,1.69q-19.91,3.507-39.7,7.809Z" fill="#051c26"/><path d="M616.862,9792.705c1.785-.787,3.565-1.589,5.374-2.319l10.824-4.462c3.6-1.516,7.269-2.838,10.908-4.249l5.468-2.087,2.734-1.044c.912-.345,1.837-.657,2.755-.987l11.033-3.91c3.667-1.337,7.4-2.464,11.112-3.681l5.569-1.8c1.858-.593,3.705-1.221,5.583-1.751l11.225-3.31c1.876-.536,3.733-1.133,5.623-1.617l2.28-.606c.241-.561.471-1.111.7-1.654l-3.352.939c-1.886.512-3.74,1.135-5.611,1.7l-11.2,3.448c-1.874.553-3.717,1.2-5.571,1.819L676.751,9769c-7.432,2.418-14.752,5.154-22.112,7.775-14.629,5.488-29.158,11.252-43.461,17.543-7.2,3.04-14.245,6.419-21.359,9.65-3.536,1.661-7.045,3.38-10.569,5.067l-5.28,2.544-5.228,2.65c-13.991,6.972-27.705,14.491-41.253,22.295-3.367,1.984-6.752,3.939-10.105,5.949l-9.994,6.136c-1.672,1.013-3.317,2.068-4.961,3.125l-4.939,3.16-4.929,3.176-4.873,3.261q-19.515,13.008-38.3,27.058a814.9,814.9,0,0,0-71.653,60.4l.16.174q34.857-31.3,72.575-59.12,18.8-13.937,38.369-26.784c13.037-8.562,26.2-16.932,39.651-24.84,13.421-7.945,26.991-15.662,40.857-22.819l5.18-2.724,5.234-2.617c3.494-1.735,6.973-3.5,10.48-5.215,7.072-3.3,14.1-6.694,21.271-9.778Z" fill="#051c26"/><path d="M1046.778,9750.916a11.711,11.711,0,0,0-2.186-5.556,18.252,18.252,0,0,0-4.3-4.13,32.358,32.358,0,0,0-5.13-2.976,64.772,64.772,0,0,0-11.113-3.949,159.524,159.524,0,0,0-23.145-4.1c-7.784-.871-15.6-1.4-23.418-1.7-15.64-.605-31.288-.439-46.915.067-3.907.12-7.812.29-11.717.456-3.9.208-7.808.378-11.709.618q-4.044.24-8.086.491a14.675,14.675,0,0,1,.016,2.471q15.781-1.074,31.581-1.762c15.584-.647,31.186-.956,46.766-.5,7.788.241,15.572.638,23.321,1.39a158,158,0,0,1,23,3.718,66.094,66.094,0,0,1,10.992,3.7,31.6,31.6,0,0,1,5.045,2.788,17.454,17.454,0,0,1,4.193,3.862,11,11,0,0,1,2.161,5.174,12.132,12.132,0,0,1-.757,5.612,20.808,20.808,0,0,1-2.777,5.061,28.03,28.03,0,0,1-3.887,4.318l.151.183a28.321,28.321,0,0,0,4.044-4.271,20.738,20.738,0,0,0,2.958-5.1A12.71,12.71,0,0,0,1046.778,9750.916Z" fill="#051c26"/><path d="M642.371,9841.835c-1.315.465-2.628.934-3.933,1.427q-18.024,6.631-35.772,14l-8.835,3.773c-2.942,1.265-5.853,2.6-8.782,3.9l-4.383,1.967-4.355,2.028c-2.9,1.365-5.813,2.693-8.681,4.121a775.085,775.085,0,0,0-130.519,80.683l.14.19a938.437,938.437,0,0,1,131.267-79.06c11.469-5.636,23-11.153,34.715-16.276,2.917-1.307,5.872-2.526,8.806-3.794l4.409-1.885,4.441-1.81c2.964-1.194,5.911-2.437,8.891-3.593l8.962-3.416c1.189-.458,2.385-.9,3.583-1.33A8.9,8.9,0,0,1,642.371,9841.835Z" fill="#051c26"/><path d="M1008.2,9806.971a12.287,12.287,0,0,0-1.021-2.216,12.912,12.912,0,0,0-1.469-1.956,21.3,21.3,0,0,0-8.235-5.051,58.5,58.5,0,0,0-9.327-2.521c-3.161-.607-6.348-1.042-9.54-1.388-6.387-.686-12.8-1.014-19.209-1.2s-12.822-.163-19.228-.05c-12.815.23-25.613.835-38.4,1.608q-9.586.609-19.161,1.354t-19.14,1.595q-4.287.382-8.572.79l.359,2.5q4.218-.394,8.439-.771c12.737-1.132,25.478-2.233,38.232-3.107,12.75-.925,25.513-1.68,38.284-2.061,12.765-.319,25.563-.516,38.271.576,3.174.28,6.339.657,9.475,1.185a57.572,57.572,0,0,1,9.244,2.235,20.642,20.642,0,0,1,8.113,4.673,12.6,12.6,0,0,1,1.458,1.836,11.719,11.719,0,0,1,1.053,2.1,17.569,17.569,0,0,1,.986,4.637l.236-.02A17.9,17.9,0,0,0,1008.2,9806.971Z" fill="#051c26"/><path d="M706.645,9863.223c-.341.076-.684.145-1.024.223l-8.122,1.815-8.092,1.939c-2.7.626-5.379,1.356-8.069,2.031l-4.035,1.015-4.02,1.071c-5.367,1.4-10.7,2.922-16.049,4.405-21.325,6.129-42.455,13.031-63.138,21.125-20.7,8.062-40.914,17.316-60.741,27.3-9.9,5.024-19.668,10.3-29.339,15.742-4.841,2.713-9.614,5.541-14.385,8.372l-7.121,4.3-7.061,4.4.122.2,7.214-4.138,7.236-4.094,7.276-4.021,7.3-3.968q14.623-7.9,29.554-15.2,14.892-7.368,30.077-14.114,15.2-6.7,30.615-12.892c20.534-8.3,41.42-15.754,62.633-22.182Q682.06,9869.249,707.2,9864C707.021,9863.749,706.836,9863.488,706.645,9863.223Z" fill="#051c26"/><path d="M974.747,9854.3a8.776,8.776,0,0,0-1.739-3.891,12.671,12.671,0,0,0-3.213-2.8,29.86,29.86,0,0,0-7.776-3.227,72.693,72.693,0,0,0-8.2-1.718c-5.513-.857-11.067-1.313-16.62-1.615s-11.114-.4-16.669-.41c-7.137-.008-14.27.145-21.4.39-.512.686-1.093,1.457-1.731,2.295,7.71-.389,15.424-.677,23.139-.775,5.532-.066,11.065-.046,16.589.121a164.859,164.859,0,0,1,16.51,1.229,72.852,72.852,0,0,1,8.108,1.5,28.987,28.987,0,0,1,7.631,2.887,11.984,11.984,0,0,1,3.109,2.539,8.16,8.16,0,0,1,1.729,3.574c.547,2.664-.047,5.447-.57,8.148l.231.05c.316-1.35.646-2.7.847-4.085A12.883,12.883,0,0,0,974.747,9854.3Z" fill="#051c26"/><path d="M809.088,9988.095s77.523.28,203.884-235.045c129.875-241.873,108.854-152.3,148.385-150.452a7.946,7.946,0,0,1,7.615,7.2c.335,3.886.06,9.577-1.824,17.711-37.751,54.055-137.163,179.609-187.416,255.334C915.109,9980.222,858.214,9994.138,809.088,9988.095Z" fill="#09181e"/><path d="M353.3,9425.111a15.3,15.3,0,0,0,3.658-1.789,9.867,9.867,0,0,0,2.815-2.668,9.47,9.47,0,0,0,1.259-3.422,14.543,14.543,0,0,0,.345-1.874c.1-.656.086-1.332.249-2.077l.189-.049a6.746,6.746,0,0,1,1.148,4.28,5.691,5.691,0,0,1-.613,2.241l-.626.985a10.654,10.654,0,0,1-4.3,3.438,14.072,14.072,0,0,1-4.092,1.125Z" fill="#072231"/><path d="M355.762,9411.383a29.534,29.534,0,0,1,4.012,3.313,25.608,25.608,0,0,1,3.356,4.066,12.142,12.142,0,0,1,2.188,4.954,7.918,7.918,0,0,1-1.073,5.313l-.186-.061a20.255,20.255,0,0,0-.654-4.865,26.493,26.493,0,0,0-1.623-4.553,24.333,24.333,0,0,0-2.737-4.206,34.463,34.463,0,0,0-3.4-3.808Z" fill="#072231"/><path d="M355.676,9425.947c1.393-.573,2.762-1.193,4.08-1.895a30.834,30.834,0,0,0,3.811-2.264,39.067,39.067,0,0,0,3.269-2.763,15.128,15.128,0,0,0,2.866-3.186l.19.041a6.212,6.212,0,0,1-1.655,4.5,8.28,8.28,0,0,1-1.8,1.588c-.688.4-1.357.811-2.056,1.152a31.971,31.971,0,0,1-4.237,1.826,34.617,34.617,0,0,1-4.41,1.184Z" fill="#072231"/><path d="M1142.749,9610.021s-42.246,30.639-70.859,93.446-82.8,142.979-82.8,142.979l66.071-125.63s-101.247,183.5-169.673,230.138c0,0,71.49-71.317,135.83-193.87s85.349-154.723,100.377-163.4c0,0,10.023-4.426,15.538,5.957,0,0-4.936-3.063-9.7-1.872S1132.434,9609.511,1142.749,9610.021Z" fill="#051c26"/></g><path d="M0,9347.416s29.773-43.042,87.362-23.574c38.272,12.938,76.7,43.4,114.383,64.525,134.727,75.54,17.211,146.02,53,173.687s102.75,76.059,91.26,110.665,46.453,50.017,52.2,57.884,90.165,56.237,89.842,78.376-.271,67.148,109.117,99.9c173.853,52.061,129.194,10.974,203.479,16.381,8.289.6,62.509,24.414,167.237,23.311s89.693-68.17,177.995-10.286c35.871,23.514-1.493-9.61,74.081-25.59s45.294-52.541,81.192-52.541c54.638,0,39.319-76.14,78.128-81.583S1421.66,9817.79,1450,9813.6V10530H0Z" transform="translate(0 -9296.999)" fill="#051c26"/><path d="M0,10288.66l29.107-69.37a30.943,30.943,0,0,1,42.4-15.688h0A94.4,94.4,0,0,1,112.719,10244l11.409,21.658,112.34,33.608s135.159,2.4,188.09-7.2-95.037-57.613,32.053-64.815,220.358-76.819,308.533-76.819,112.06-91.223,176.713-81.621,244.141-19.2,285.12-81.62c36.286-55.265,78.075-.146,139.636-37.315a25.157,25.157,0,0,1,37.243,14.313c10,34.28,8.031,48.8,46.144,63.813v502H0Z" transform="translate(0 -9296.999)" fill="#072231"/><g transform="translate(0 -9296.999)"><path d="M867.339,10133.6s17.834-14.193,3.435-23.5,15.012-25.173-5.531-34.844c-16.557-7.795,26.161-16.676,14.435-37.117s-5.862-21.668,1.615-25.253,18.495-16.2,3.922-31.481,3.96-3.428,14.024-17.14,2.392-24.578-8.948-30.347-8.865-10.54-.389-22.716-11.921-23.161-20.718-19.233.466-15.023-11.55-20.016-27.318,15.561-9.326,26.347-10.647,7.483-7.683,23.579,23.378,1.892,25.421,13.59-22.969,1.025-22.983,21.237,24.748,11.479,23.012,21.255-24.437,4.219-25.431,20.854,11.218,13.186,7.047,25.261-26.286,6.972-18.228,32.511,25.358,20.187,11.646,30.129-.19,26.306,8.4,23.707S835.86,10142.7,867.339,10133.6Z" fill="#072231"/><path d="M874.739,10147.822a134.664,134.664,0,0,1-15.228-31.117,171.625,171.625,0,0,1-4.8-16.735,152.944,152.944,0,0,1-2.873-17.2l-.409-4.345-.241-4.357c-.1-1.452-.124-2.907-.137-4.362s-.048-2.91-.009-4.364c.112-2.908.148-5.817.426-8.715.126-1.449.191-2.9.368-4.346l.525-4.329c.149-1.447.408-2.878.648-4.312s.469-2.867.74-4.295l.944-4.254c.308-1.419.621-2.836,1.028-4.23l1.142-4.2c.357-1.407.887-2.763,1.323-4.146l1.379-4.122,1.57-4.053c.983-2.724,2.193-5.355,3.357-8s2.32-5.262,3.454-7.906c.6-1.307,1.085-2.657,1.579-4l1.493-4.04c.471-1.355.864-2.736,1.291-4.107.4-1.377.884-2.732,1.2-4.132a111.883,111.883,0,0,0,1.518-50.868,93.915,93.915,0,0,0-4.939-16.276,91.408,91.408,0,0,0-7.845-15.145,75.109,75.109,0,0,0-10.7-13.375l.191-.234a51.464,51.464,0,0,1,6.326,5.956,69.084,69.084,0,0,1,5.51,6.745,81.242,81.242,0,0,1,8.674,15.138,87.6,87.6,0,0,1,7.392,34.007,110.622,110.622,0,0,1-1.348,17.381c-.5,2.859-.979,5.718-1.691,8.526-.574,2.839-1.4,5.613-2.143,8.405-.762,2.787-1.715,5.518-2.568,8.276-1.005,2.706-1.9,5.456-2.99,8.132s-2.176,5.367-3.21,8.034-2.137,5.323-3,8.059a161.9,161.9,0,0,0-7.507,33.394l-.44,4.255c-.149,1.418-.187,2.847-.285,4.269-.223,2.843-.206,5.7-.266,8.545.07,5.7.215,11.4.853,17.069a171.461,171.461,0,0,0,6.71,33.53c1.686,5.464,3.56,10.884,5.772,16.174a138.351,138.351,0,0,0,7.462,15.509Z" fill="#051c26"/></g><g transform="translate(0 -9296.999)"><path d="M1084.885,9921.927s3.957-6.091-1.334-7.45,1.995-9.124-5.19-9.973c-5.791-.684,6.223-7.681.615-12.675s-3.96-5.957-2.062-7.8,3.955-6.762-1.993-9.91.851-1.437,2.508-6.6-1.759-7.67-5.769-8.27-3.743-2.29-2.411-6.826-5.941-5.8-8.2-3.721-1.376-4.588-5.512-4.883-6.685,7.461-.158,8.9-2.463,3.337.058,7.9,7.257-1.788,9.056,1.541-6.839,2.629-4.8,8.739,8.638.971,9.1,4.1-6.96,3.742-5.581,8.87,4.722,2.853,4.68,6.923-7.24,4.762-2.226,11.666,9.7,3.541,6.562,7.931,2.6,7.97,4.931,6.317S1076.29,9927.856,1084.885,9921.927Z" fill="#051c26"/><path d="M1088.558,9925.478a42.871,42.871,0,0,1-7.744-7.866,54.789,54.789,0,0,1-3.14-4.573,48.618,48.618,0,0,1-2.6-4.908l-.563-1.271-.513-1.293c-.176-.43-.33-.866-.481-1.306s-.309-.874-.444-1.317c-.259-.891-.542-1.773-.751-2.678-.108-.449-.235-.9-.327-1.35l-.279-1.362c-.1-.452-.167-.911-.239-1.368s-.148-.913-.21-1.372l-.144-1.382c-.051-.46-.1-.92-.117-1.382l-.079-1.385c-.034-.461-.011-.925-.019-1.386v-1.387l.065-1.383c.022-.922.122-1.84.207-2.758s.17-1.824.246-2.738c.048-.455.059-.913.072-1.37l.044-1.37c.005-.458-.015-.915-.025-1.372s-.009-.915-.054-1.371a35.65,35.65,0,0,0-4.677-15.527,29.968,29.968,0,0,0-3.136-4.42,29.189,29.189,0,0,0-3.9-3.786,23.935,23.935,0,0,0-4.585-2.962l.035-.09a16.426,16.426,0,0,1,2.513,1.162,21.991,21.991,0,0,1,2.346,1.481,25.9,25.9,0,0,1,4.15,3.7,27.914,27.914,0,0,1,5.668,9.532,35.241,35.241,0,0,1,1.347,5.389c.137.915.282,1.827.35,2.748.113.916.144,1.838.2,2.757s.039,1.84.06,2.761c-.031.92-.025,1.841-.083,2.76s-.116,1.842-.159,2.752-.109,1.825-.093,2.739a51.593,51.593,0,0,0,1.1,10.85l.3,1.331c.1.443.231.879.344,1.318.22.882.513,1.742.783,2.609.6,1.715,1.216,3.424,1.981,5.073a54.576,54.576,0,0,0,5.414,9.456c1.061,1.48,2.174,2.93,3.377,4.306a44.166,44.166,0,0,0,3.821,3.934Z" fill="#0a3449"/></g><g transform="translate(0 -9296.999)"><path d="M1093.845,9924.272s-3.343-8.146,3.267-8.574-.324-11.318,8.426-10.712c7.053.487-5.684-10.553,2.121-15.239s6.057-6.205,4.21-8.822-3.189-8.947,4.6-11.357-.69-1.9-1.5-8.423,3.821-8.741,8.733-8.552,4.974-1.886,4.408-7.59,8.383-5.567,10.61-2.586,2.672-5.155,7.666-4.577,6.284,10.394-1.816,10.645,2.183,4.528-1.848,9.4-8.242-3.764-11.134-.2,7.555,4.67,3.753,11.491-10.509-.788-11.764,2.836,7.449,6.025,4.651,11.824-6.267,2.335-7.133,7.193,7.553,7.3.026,14.4-12.355,2.035-9.6,7.972-4.89,8.908-7.3,6.414S1102.75,9933.27,1093.845,9924.272Z" fill="#051c26"/><path d="M1088.67,9927.677a52.012,52.012,0,0,0,11-7.629,66.268,66.268,0,0,0,4.77-4.742,58.667,58.667,0,0,0,4.207-5.26l.956-1.388.9-1.425c.307-.472.589-.957.868-1.445s.564-.973.825-1.471c.509-1,1.045-1.99,1.5-3.021.23-.512.482-1.015.694-1.535l.638-1.559c.222-.517.4-1.048.593-1.576s.382-1.056.56-1.589l.482-1.612c.164-.537.325-1.074.45-1.621l.406-1.632c.144-.542.221-1.1.334-1.646l.311-1.651.233-1.662c.182-1.1.269-2.22.375-3.332s.208-2.212.324-3.316c.044-.555.134-1.1.221-1.649l.257-1.643c.1-.547.224-1.088.338-1.63s.217-1.088.373-1.619a43.21,43.21,0,0,1,9.066-17.445,36.347,36.347,0,0,1,4.731-4.561,35.418,35.418,0,0,1,5.5-3.632,29.079,29.079,0,0,1,6.127-2.5l-.02-.114a19.982,19.982,0,0,0-3.256.817,26.791,26.791,0,0,0-3.128,1.238,31.413,31.413,0,0,0-5.776,3.473,33.853,33.853,0,0,0-8.9,10.079,42.908,42.908,0,0,0-2.818,6.117c-.369,1.059-.746,2.113-1.035,3.2-.341,1.064-.585,2.155-.859,3.237s-.461,2.186-.693,3.276c-.17,1.1-.386,2.2-.523,3.306s-.276,2.221-.43,3.315-.281,2.2-.506,3.283a62.5,62.5,0,0,1-3.755,12.678l-.653,1.518c-.217.507-.473,1-.708,1.493-.46,1-1,1.961-1.519,2.934-1.1,1.907-2.219,3.8-3.5,5.6a66.241,66.241,0,0,1-8.577,10.047c-1.6,1.526-3.25,3-4.993,4.369a53.445,53.445,0,0,1-5.437,3.826Z" fill="#0a3449"/></g><g transform="translate(0 -9296.999)"><path d="M1087.85,9927.938s-8.967-7.138-1.727-11.816-7.548-12.656,2.78-17.519c8.325-3.919-13.152-8.384-7.257-18.66s2.948-10.895-.812-12.7-9.3-8.145-1.971-15.828-1.991-1.723-7.052-8.617-1.2-12.356,4.5-15.257,4.456-5.3.195-11.421,5.993-11.645,10.416-9.67-.234-7.553,5.807-10.063,13.735,7.824,4.689,13.246,5.353,3.763,3.863,11.855-11.754.951-12.781,6.833,11.548.515,11.555,10.677-12.443,5.771-11.569,10.686,12.286,2.121,12.785,10.485-5.64,6.629-3.543,12.7,13.216,3.5,9.164,16.345-12.748,10.149-5.855,15.148.1,13.226-4.221,11.919S1103.677,9932.514,1087.85,9927.938Z" fill="#051c26"/><path d="M1084.129,9935.089a67.694,67.694,0,0,0,7.656-15.644,86.2,86.2,0,0,0,2.412-8.414,76.986,76.986,0,0,0,1.445-8.646l.205-2.185.122-2.191c.05-.729.062-1.461.068-2.191s.024-1.464.005-2.2c-.056-1.461-.074-2.925-.214-4.381-.063-.729-.1-1.459-.185-2.186l-.264-2.177c-.075-.727-.205-1.447-.326-2.167s-.236-1.442-.372-2.16l-.475-2.138c-.154-.714-.312-1.426-.516-2.128l-.575-2.111c-.179-.707-.446-1.389-.665-2.084l-.693-2.073-.79-2.036c-.494-1.37-1.1-2.693-1.687-4.024s-1.167-2.646-1.737-3.975c-.3-.657-.545-1.336-.794-2.014l-.75-2.032c-.237-.681-.435-1.376-.649-2.064s-.445-1.373-.6-2.077a56.245,56.245,0,0,1-.763-25.575,47.192,47.192,0,0,1,2.483-8.183,45.977,45.977,0,0,1,3.945-7.615,37.755,37.755,0,0,1,5.379-6.724l-.1-.118a25.916,25.916,0,0,0-3.181,3,34.933,34.933,0,0,0-2.77,3.391,40.949,40.949,0,0,0-4.361,7.611,44.045,44.045,0,0,0-3.716,17.1,55.557,55.557,0,0,0,.678,8.738c.252,1.437.492,2.874.85,4.287.288,1.427.7,2.822,1.077,4.225s.862,2.775,1.291,4.162c.506,1.36.957,2.743,1.5,4.088s1.093,2.7,1.614,4.039,1.074,2.677,1.507,4.052a81.431,81.431,0,0,1,3.775,16.789l.221,2.141c.074.713.093,1.43.143,2.145.112,1.43.1,2.864.134,4.3-.035,2.864-.109,5.731-.429,8.581a86.241,86.241,0,0,1-3.374,16.859c-.847,2.747-1.789,5.471-2.9,8.131A69.513,69.513,0,0,1,1084,9935Z" fill="#0a3449"/></g><g transform="translate(0 -9296.999)"><path d="M123.834,10270.278s-6.319-9.727,2.131-11.9-3.187-14.57,8.287-15.925c9.248-1.093-9.937-12.266-.982-20.241s6.323-9.512,3.292-12.448-6.314-10.8,3.183-15.825-1.359-2.292-4-10.533,2.808-12.247,9.211-13.2,5.978-3.658,3.851-10.9,9.487-9.255,13.1-5.941,2.2-7.325,8.8-7.8,10.675,11.914.253,14.219,3.932,5.328-.094,12.618-11.587-2.856-14.46,2.461,10.92,4.2,7.668,13.954-13.8,1.551-14.532,6.548,11.113,5.976,8.911,14.165-7.54,4.555-7.474,11.055,11.562,7.6,3.555,18.629-15.493,5.654-10.478,12.664-4.15,12.727-7.875,10.087S137.558,10279.746,123.834,10270.278Z" fill="#072231"/><path d="M117.969,10275.949a68.52,68.52,0,0,0,12.366-12.562,87.782,87.782,0,0,0,5.014-7.3,77.711,77.711,0,0,0,4.158-7.837l.9-2.031.82-2.063c.282-.686.528-1.384.769-2.083s.492-1.4.708-2.105c.415-1.421.866-2.831,1.2-4.273.173-.721.376-1.433.523-2.157l.445-2.174c.161-.723.267-1.455.382-2.186s.236-1.46.336-2.191l.23-2.206c.08-.734.157-1.47.186-2.207l.126-2.212c.054-.736.017-1.477.03-2.214v-2.212l-.105-2.209c-.035-1.473-.194-2.938-.329-4.4s-.272-2.913-.393-4.372c-.077-.729-.1-1.458-.116-2.188l-.069-2.189c-.009-.73.024-1.461.039-2.191s.014-1.461.086-2.187a56.976,56.976,0,0,1,7.469-24.8,47.908,47.908,0,0,1,5.008-7.059,46.529,46.529,0,0,1,6.228-6.044,38.2,38.2,0,0,1,7.32-4.73l-.054-.144a26.151,26.151,0,0,0-4.014,1.855,35.146,35.146,0,0,0-3.746,2.366,41.323,41.323,0,0,0-6.627,5.907,44.58,44.58,0,0,0-9.051,15.221,56.371,56.371,0,0,0-2.151,8.606c-.219,1.461-.45,2.917-.559,4.387-.181,1.463-.23,2.936-.32,4.4s-.063,2.939-.1,4.409c.049,1.468.039,2.939.132,4.405s.185,2.941.254,4.4.173,2.914.148,4.373a82.358,82.358,0,0,1-1.761,17.327l-.474,2.125c-.157.708-.368,1.4-.55,2.1-.351,1.408-.819,2.783-1.249,4.167-.953,2.739-1.943,5.469-3.164,8.1a87.266,87.266,0,0,1-8.645,15.1c-1.694,2.366-3.472,4.679-5.393,6.875a70.524,70.524,0,0,1-6.1,6.282Z" fill="#051c26"/></g><g transform="translate(0 -9296.999)"><path d="M120.074,10261.382s14.319-11.4,2.758-18.868,12.053-20.21-4.44-27.975c-13.293-6.258,21-13.388,11.589-29.8s-4.707-17.4,1.3-20.274,14.848-13,3.148-25.274,3.179-2.751,11.259-13.761,1.921-19.732-7.184-24.363-7.116-8.462-.312-18.238-9.571-18.594-16.633-15.441.373-12.061-9.273-16.068-21.932,12.492-7.487,21.152-8.548,6.007-6.168,18.93,18.768,1.52,20.409,10.912-18.441.821-18.452,17.049,19.869,9.217,18.474,17.064-19.618,3.388-20.416,16.742,9.006,10.586,5.657,20.28-21.1,5.6-14.634,26.1,20.358,16.206,9.35,24.188-.152,21.12,6.741,19.033S94.8,10268.689,120.074,10261.382Z" fill="#072231"/><path d="M126.016,10272.8a108.1,108.1,0,0,1-12.226-24.981,137.858,137.858,0,0,1-3.852-13.437,123.014,123.014,0,0,1-2.306-13.806l-.328-3.488-.194-3.5c-.08-1.165-.1-2.333-.11-3.5s-.038-2.337-.007-3.5c.09-2.335.119-4.671.342-7,.1-1.163.154-2.33.295-3.489l.422-3.476c.119-1.161.328-2.31.52-3.461s.377-2.3.594-3.448l.758-3.415c.247-1.14.5-2.276.825-3.4l.918-3.372c.286-1.129.712-2.219,1.062-3.328l1.107-3.31,1.26-3.254c.789-2.187,1.76-4.3,2.695-6.425s1.863-4.224,2.773-6.347c.48-1.05.871-2.134,1.268-3.216l1.2-3.243c.379-1.089.695-2.2,1.037-3.3.322-1.106.709-2.194.965-3.318a90.548,90.548,0,0,0,2.9-27.279,90.113,90.113,0,0,0-1.682-13.56,75.466,75.466,0,0,0-3.965-13.067,73.508,73.508,0,0,0-6.3-12.159,60.328,60.328,0,0,0-8.59-10.737l.153-.188a41.308,41.308,0,0,1,5.079,4.782,55.471,55.471,0,0,1,4.424,5.415,65.256,65.256,0,0,1,6.963,12.153,70.3,70.3,0,0,1,5.935,27.3,88.847,88.847,0,0,1-1.082,13.954c-.4,2.295-.786,4.59-1.358,6.845-.46,2.279-1.123,4.506-1.721,6.748s-1.376,4.43-2.061,6.646c-.807,2.172-1.528,4.38-2.4,6.527s-1.746,4.311-2.577,6.451-1.716,4.273-2.407,6.47a129.93,129.93,0,0,0-6.027,26.81l-.354,3.417c-.119,1.138-.149,2.284-.229,3.426-.179,2.283-.165,4.574-.213,6.861.056,4.572.173,9.151.685,13.7a137.67,137.67,0,0,0,5.387,26.921c1.354,4.387,2.858,8.736,4.634,12.984a110.968,110.968,0,0,0,5.991,12.451Z" fill="#051c26"/></g><g transform="translate(0 -9296.999)"><path d="M1258.878,9563.656s5.6-4.461,1.079-7.387,4.719-7.912-1.738-10.951c-5.2-2.45,8.223-5.242,4.537-11.667s-1.843-6.811.508-7.937,5.813-5.091,1.232-9.895,1.245-1.077,4.408-5.388.752-7.725-2.812-9.538-2.786-3.312-.123-7.141-3.746-7.279-6.511-6.045.146-4.722-3.631-6.291-8.586,4.891-2.931,8.281-3.346,2.352-2.415,7.411,7.348.595,7.99,4.271-7.219.322-7.224,6.675,7.779,3.608,7.233,6.682-7.68,1.326-7.993,6.554,3.526,4.145,2.215,7.94-8.262,2.19-5.729,10.219,7.97,6.345,3.66,9.47-.059,8.269,2.639,7.451S1248.983,9566.517,1258.878,9563.656Z" fill="#072231"/><path d="M1261.2,9568.127a42.332,42.332,0,0,1-4.787-9.78,54.189,54.189,0,0,1-1.508-5.26,48.092,48.092,0,0,1-.9-5.406l-.129-1.364-.076-1.37c-.031-.456-.039-.913-.043-1.371s-.015-.914,0-1.371c.035-.914.047-1.829.134-2.74.04-.455.06-.912.116-1.366l.165-1.359c.047-.455.128-.905.2-1.355s.147-.9.232-1.35l.3-1.337c.1-.447.195-.893.323-1.33l.359-1.321c.112-.442.279-.868.416-1.3l.433-1.3.494-1.274c.309-.855.689-1.683,1.055-2.515s.729-1.654,1.085-2.485c.188-.411.341-.835.5-1.259l.469-1.271c.148-.426.272-.859.406-1.291s.278-.858.378-1.3a35.2,35.2,0,0,0,.477-15.987,29.541,29.541,0,0,0-1.553-5.116,28.682,28.682,0,0,0-2.466-4.76,23.488,23.488,0,0,0-3.363-4.2l.06-.074a16.136,16.136,0,0,1,1.989,1.872,21.866,21.866,0,0,1,1.732,2.12,25.589,25.589,0,0,1,2.726,4.758,27.549,27.549,0,0,1,2.324,10.688,34.858,34.858,0,0,1-.424,5.464c-.158.9-.308,1.8-.532,2.68-.18.892-.44,1.764-.674,2.642s-.538,1.734-.806,2.6c-.317.851-.6,1.715-.94,2.556s-.684,1.688-1.009,2.526-.672,1.673-.943,2.532a50.85,50.85,0,0,0-2.359,10.5l-.139,1.337c-.046.446-.058.9-.089,1.342-.07.894-.065,1.791-.084,2.686.022,1.791.068,3.584.268,5.365a53.888,53.888,0,0,0,2.109,10.54c.53,1.717,1.119,3.42,1.814,5.083a43.591,43.591,0,0,0,2.346,4.875Z" fill="#0a3449"/></g><g transform="translate(0 -9296.999)"><path d="M1252.142,9568.729s2.043-4.213-1.451-4.657.546-6-4.118-5.963c-3.759.025,3.365-5.412-.622-8.157s-3.01-3.493-1.944-4.821,1.988-4.643-2.069-6.179.429-.987,1.076-4.42-1.74-4.767-4.352-4.827-2.578-1.165-2.09-4.173-4.264-3.232-5.545-1.724-1.248-2.823-3.917-2.682-3.678,5.308.612,5.709-1.307,2.331.671,5.049,4.5-1.725,5.916.26-4.164,2.23-2.372,5.976,5.6-.072,6.15,1.893-4.152,2.952-2.859,6.121,3.249,1.446,3.549,4.053-4.25,3.626-.489,7.642,6.489,1.487,4.832,4.547,2.3,4.889,3.66,3.645S1247.119,9573.21,1252.142,9568.729Z" fill="#072231"/><path d="M1254.776,9570.706a27.643,27.643,0,0,1-5.584-4.411,35.228,35.228,0,0,1-2.375-2.674,31.423,31.423,0,0,1-2.059-2.93l-.461-.769-.432-.786c-.148-.26-.281-.527-.413-.8s-.267-.535-.389-.808c-.237-.548-.489-1.09-.695-1.652-.105-.279-.222-.554-.318-.837l-.287-.849c-.1-.281-.18-.569-.263-.856s-.167-.573-.244-.861l-.2-.871c-.069-.29-.137-.58-.185-.875l-.162-.88c-.058-.293-.081-.591-.123-.886l-.11-.886-.069-.89c-.06-.592-.07-1.187-.089-1.78s-.038-1.182-.062-1.771c-.006-.295-.035-.589-.064-.882l-.082-.881c-.033-.293-.083-.584-.125-.876s-.079-.584-.145-.872a23.012,23.012,0,0,0-4.235-9.557,19.36,19.36,0,0,0-2.361-2.576,18.787,18.787,0,0,0-2.8-2.109,15.46,15.46,0,0,0-3.169-1.526l.014-.061a10.577,10.577,0,0,1,1.7.541,14.233,14.233,0,0,1,1.62.76,16.74,16.74,0,0,1,2.95,2.034,18,18,0,0,1,4.39,5.644,22.712,22.712,0,0,1,1.293,3.339c.161.574.327,1.146.444,1.729.146.577.239,1.164.349,1.747s.173,1.175.26,1.762c.054.591.132,1.18.168,1.771s.074,1.188.119,1.774.077,1.175.16,1.759a33.254,33.254,0,0,0,1.575,6.852l.3.827c.1.276.218.543.326.816.211.546.468,1.072.71,1.605a35.767,35.767,0,0,0,5.894,8.7c.8.862,1.626,1.7,2.505,2.483a28.611,28.611,0,0,0,2.759,2.21Z" fill="#0a3449"/></g></svg>