<svg xmlns="http://www.w3.org/2000/svg" width="130" height="80.027" viewBox="0 0 130 80.027"><path d="M75.416,33.375H86.454V75.831H75.436V58.014H72.122v17.82H61.082V33.375H72.106V48.516h3.31Zm-35.378-.313a2.534,2.534,0,1,1,2.554-2.521,2.579,2.579,0,0,1-2.553,2.52ZM33.552,53.274H25v-13.6h8.552ZM25.408,29.49h-.4V22.305H60.182v12.2H57.514V53.279H35.734V39.644h8.453a.33.33,0,0,1,.381.255,3.805,3.805,0,1,0,3.663-5.083,3.753,3.753,0,0,0-3.663,2.51c-.088.241-.217.249-.415.249H25.02V31.641c.1,0,.2-.013.3-.013H36.1a.378.378,0,0,1,.424.29,3.809,3.809,0,1,0,0-2.78.47.47,0,0,1-.534.359C32.469,29.486,28.937,29.49,25.408,29.49Zm77.182,9.384H91.68v-5.5h10.91ZM45.612,38.6a2.534,2.534,0,1,1,2.534,2.544A2.577,2.577,0,0,1,45.612,38.6Zm3.537,23.654a2.534,2.534,0,1,1,2.526-2.543A2.577,2.577,0,0,1,49.149,62.252Zm8.343,14.839h2.719v10.6c0,.151.014.276-.171.382q-4.764,2.729-9.517,5.48c-.071.041-.146.075-.252.133-.007-.113-.018-.2-.018-.289V63.677c0-.164-.013-.3.206-.384a3.787,3.787,0,0,0,1.475-6.163c-.02-.023-.033-.05-.069-.1H57.5ZM48.114,63.7q-.01,15.471,0,30.943a.436.436,0,0,1-.235.45q-6.186,3.552-12.362,7.122c-.063.036-.134.067-.231.12V88.014H25v-31h8.551c0,.1.013.2.013.3V70.786a.351.351,0,0,1-.267.4,3.8,3.8,0,1,0,2.72.045.416.416,0,0,1-.323-.462q.013-6.7,0-13.4v-.351H46.431c-.134.163-.248.293-.35.431a3.794,3.794,0,0,0,1.72,5.837A.372.372,0,0,1,48.114,63.7ZM34.6,72.224a2.534,2.534,0,1,1-2.522,2.55A2.574,2.574,0,0,1,34.6,72.224Zm120.4-4.9v8.512H135.867V33.367h18.422v8.49h-7.345V49.9H153.8v8.09h-6.852v9.337ZM131.243,39.715a6.431,6.431,0,0,0-2.21-4.091,8.028,8.028,0,0,0-3.078-1.551,22.313,22.313,0,0,0-6.136-.719c-3.867-.024-7.726-.008-11.59-.008h-.4V75.835h11.028v-17.1h.4c1.6-.038,3.214-.03,4.817-.133a10.174,10.174,0,0,0,4-1.055,5.539,5.539,0,0,0,3.076-3.773,18.323,18.323,0,0,0,.454-4.135c.018-1.836.048-3.676-.01-5.511a42.017,42.017,0,0,0-.356-4.412ZM122.3,48.83a5.773,5.773,0,0,1-.182,1.107,1.706,1.706,0,0,1-1.467,1.4,17.36,17.36,0,0,1-1.778.133V40.638a5.52,5.52,0,0,1,2.422.382,1.579,1.579,0,0,1,.87,1.23,9.326,9.326,0,0,1,.185,1.674c.007,1.637-.017,3.274-.054,4.911Zm-30.6-7.8h10.9V75.837H91.7Z" transform="translate(-25 -22.305)" fill="#fff"/></svg>